<svg className='logo' xmlns="http://www.w3.org/2000/svg" fill="#fff" version="1.1" id="Capa_1" width="32px" height="32px" viewBox="0 0 984 984" xml="preserve">
  <g>
    <path d="M972,60c0-33.1-26.9-60-60-60H72C38.9,0,12,26.9,12,60v519c0,33.1,26.9,60,60,60h840c33.1,0,60-26.9,60-60V60z" />
    <path d="M921,716H205c-28.2,0-51,22.8-51,51s22.8,51,51,51h716c28.2,0,51-22.8,51-51S949.2,716,921,716z" />
    <path d="M921,882H330.8c-28.2,0-51,22.8-51,51s22.8,51,51,51H921c28.2,0,51-22.8,51-51S949.2,882,921,882z" />
  </g>
</svg>